<svg width="135" height="60" viewBox="0 0 135 60" fill="none" xmlns="http://www.w3.org/2000/svg">
<circle cx="105" cy="30" r="30" fill="#001F3F"/>
<path d="M108.022 27.5775L102.902 22.3323C102.693 22.1195 102.411 22 102.116 22C101.822 22 101.539 22.1195 101.33 22.3323C101.225 22.4385 101.142 22.5649 101.086 22.7042C101.029 22.8434 101 22.9928 101 23.1437C101 23.2945 101.029 23.4439 101.086 23.5831C101.142 23.7224 101.225 23.8488 101.33 23.955L106.46 29.1888C106.565 29.295 106.648 29.4214 106.704 29.5607C106.761 29.6999 106.79 29.8493 106.79 30.0001C106.79 30.151 106.761 30.3004 106.704 30.4396C106.648 30.5789 106.565 30.7052 106.46 30.8115L101.33 36.0453C101.12 36.2589 101.001 36.5493 101 36.8526C100.999 37.1558 101.116 37.4471 101.324 37.6622C101.533 37.8774 101.816 37.9989 102.112 38C102.408 38.0011 102.692 37.8816 102.902 37.668L108.022 32.4228C108.648 31.78 109 30.9086 109 30.0001C109 29.0916 108.648 28.2203 108.022 27.5775Z" fill="white"/>
<circle cx="30" cy="30" r="29.5" stroke="#001F3F"/>
<path d="M27.8562 27.8803L32.3354 23.2908C32.5182 23.1045 32.7656 23 33.0234 23C33.2812 23 33.5285 23.1045 33.7113 23.2908C33.8028 23.3837 33.8754 23.4943 33.9249 23.6162C33.9745 23.738 34 23.8687 34 24.0007C34 24.1327 33.9745 24.2634 33.9249 24.3852C33.8754 24.5071 33.8028 24.6177 33.7113 24.7106L29.2224 29.2902C29.1309 29.3831 29.0583 29.4937 29.0088 29.6156C28.9592 29.7374 28.9337 29.8681 28.9337 30.0001C28.9337 30.1321 28.9592 30.2628 29.0088 30.3847C29.0583 30.5065 29.1309 30.6171 29.2224 30.71L33.7113 35.2896C33.8951 35.4766 33.9988 35.7307 33.9998 35.996C34.0007 36.2613 33.8987 36.5162 33.7162 36.7045C33.5338 36.8928 33.2858 36.9991 33.0268 37C32.7679 37.0009 32.5191 36.8964 32.3354 36.7095L27.8562 32.1199C27.3079 31.5575 27 30.795 27 30.0001C27 29.2052 27.3079 28.4428 27.8562 27.8803Z" fill="#001F3F"/>
</svg>
